<?xml version="1.0" encoding="UTF-8"?>
<!DOCTYPE svg
PUBLIC "-//W3C//DTD SVG 1.1//EN"
       "http://www.w3.org/Graphics/SVG/1.1/DTD/svg11.dtd">
<svg viewBox="47 -5 1015 718" width="968px" height="723px" xmlns="http://www.w3.org/2000/svg" version="1.1">
   <line x1="997" y1="374" x2="1007" y2="374" style="stroke:#c00;stroke-width:1;"/>
   <line x1="1010" y1="308" x2="1000" y2="308" style="stroke:#c00;stroke-width:1;"/>
   <line x1="1007" y1="374" x2="1010" y2="308" style="stroke:#c00;stroke-width:1;"/>
   <line x1="1004.5" y1="374" x2="1000.9644660941" y2="377.53553390593" style="stroke:#c00;stroke-width:2;"/>
   <line x1="1004.5" y1="374" x2="1000.9644660941" y2="370.46446609407" style="stroke:#c00;stroke-width:2;"/>
   <line x1="1005" y1="308" x2="1008.5355339059" y2="311.53553390593" style="stroke:#c00;stroke-width:2;"/>
   <line x1="1005" y1="308" x2="1008.5355339059" y2="304.46446609407" style="stroke:#c00;stroke-width:2;"/>
   <line x1="669" y1="133" x2="679" y2="133" style="stroke:#c00;stroke-width:1;"/>
   <line x1="871" y1="51" x2="881" y2="51" style="stroke:#c00;stroke-width:1;"/>
   <line x1="679" y1="133" x2="871" y2="51" style="stroke:#c00;stroke-width:1;"/>
   <line x1="676.5" y1="133" x2="672.96446609407" y2="136.53553390593" style="stroke:#c00;stroke-width:2;"/>
   <line x1="676.5" y1="133" x2="672.96446609407" y2="129.46446609407" style="stroke:#c00;stroke-width:2;"/>
   <line x1="876" y1="51" x2="872.46446609407" y2="54.535533905933" style="stroke:#c00;stroke-width:2;"/>
   <line x1="876" y1="51" x2="872.46446609407" y2="47.464466094067" style="stroke:#c00;stroke-width:2;"/>
   <line x1="669" y1="153" x2="679" y2="153" style="stroke:#333;stroke-width:1;"/>
   <line x1="871" y1="51" x2="881" y2="51" style="stroke:#333;stroke-width:1;"/>
   <line x1="679" y1="153" x2="871" y2="51" style="stroke:#333;stroke-width:1;"/>
   <line x1="676.5" y1="153" x2="672.96446609407" y2="156.53553390593" style="stroke:#333;stroke-width:2;"/>
   <line x1="676.5" y1="153" x2="672.96446609407" y2="149.46446609407" style="stroke:#333;stroke-width:2;"/>
   <line x1="876" y1="51" x2="872.46446609407" y2="54.535533905933" style="stroke:#333;stroke-width:2;"/>
   <line x1="876" y1="51" x2="872.46446609407" y2="47.464466094067" style="stroke:#333;stroke-width:2;"/>
   <line x1="532" y1="113" x2="522" y2="113" style="stroke:#cb0;stroke-width:1;"/>
   <line x1="250" y1="224" x2="240" y2="224" style="stroke:#cb0;stroke-width:1;"/>
   <line x1="522" y1="113" x2="250" y2="224" style="stroke:#cb0;stroke-width:1;"/>
   <line x1="524.5" y1="113" x2="528.03553390593" y2="116.53553390593" style="stroke:#cb0;stroke-width:2;"/>
   <line x1="524.5" y1="113" x2="528.03553390593" y2="109.46446609407" style="stroke:#cb0;stroke-width:2;"/>
   <line x1="245" y1="224" x2="248.53553390593" y2="227.53553390593" style="stroke:#cb0;stroke-width:2;"/>
   <line x1="245" y1="224" x2="248.53553390593" y2="220.46446609407" style="stroke:#cb0;stroke-width:2;"/>
   <line x1="532" y1="173" x2="522" y2="173" style="stroke:#c00;stroke-width:1;"/>
   <line x1="514" y1="349" x2="524" y2="349" style="stroke:#c00;stroke-width:1;"/>
   <line x1="522" y1="173" x2="514" y2="349" style="stroke:#c00;stroke-width:1;"/>
   <line x1="524.5" y1="173" x2="528.03553390593" y2="176.53553390593" style="stroke:#c00;stroke-width:2;"/>
   <line x1="524.5" y1="173" x2="528.03553390593" y2="169.46446609407" style="stroke:#c00;stroke-width:2;"/>
   <line x1="519" y1="349" x2="515.46446609407" y2="352.53553390593" style="stroke:#c00;stroke-width:2;"/>
   <line x1="519" y1="349" x2="515.46446609407" y2="345.46446609407" style="stroke:#c00;stroke-width:2;"/>
   <line x1="669" y1="233" x2="679" y2="233" style="stroke:#0b0;stroke-width:1;"/>
   <line x1="853" y1="288" x2="863" y2="288" style="stroke:#0b0;stroke-width:1;"/>
   <line x1="679" y1="233" x2="853" y2="288" style="stroke:#0b0;stroke-width:1;"/>
   <line x1="676.5" y1="233" x2="672.96446609407" y2="236.53553390593" style="stroke:#0b0;stroke-width:2;"/>
   <line x1="676.5" y1="233" x2="672.96446609407" y2="229.46446609407" style="stroke:#0b0;stroke-width:2;"/>
   <line x1="858" y1="288" x2="854.46446609407" y2="291.53553390593" style="stroke:#0b0;stroke-width:2;"/>
   <line x1="858" y1="288" x2="854.46446609407" y2="284.46446609407" style="stroke:#0b0;stroke-width:2;"/>
   <line x1="669" y1="193" x2="679" y2="193" style="stroke:#333;stroke-width:1;"/>
   <line x1="859" y1="211" x2="869" y2="211" style="stroke:#333;stroke-width:1;"/>
   <line x1="679" y1="193" x2="859" y2="211" style="stroke:#333;stroke-width:1;"/>
   <line x1="676.5" y1="193" x2="672.96446609407" y2="196.53553390593" style="stroke:#333;stroke-width:2;"/>
   <line x1="676.5" y1="193" x2="672.96446609407" y2="189.46446609407" style="stroke:#333;stroke-width:2;"/>
   <line x1="864" y1="211" x2="860.46446609407" y2="214.53553390593" style="stroke:#333;stroke-width:2;"/>
   <line x1="864" y1="211" x2="860.46446609407" y2="207.46446609407" style="stroke:#333;stroke-width:2;"/>
   <line x1="532" y1="113" x2="522" y2="113" style="stroke:#c00;stroke-width:1;"/>
   <line x1="250" y1="224" x2="240" y2="224" style="stroke:#c00;stroke-width:1;"/>
   <line x1="522" y1="113" x2="250" y2="224" style="stroke:#c00;stroke-width:1;"/>
   <line x1="524.5" y1="113" x2="528.03553390593" y2="116.53553390593" style="stroke:#c00;stroke-width:2;"/>
   <line x1="524.5" y1="113" x2="528.03553390593" y2="109.46446609407" style="stroke:#c00;stroke-width:2;"/>
   <line x1="245" y1="224" x2="248.53553390593" y2="227.53553390593" style="stroke:#c00;stroke-width:2;"/>
   <line x1="245" y1="224" x2="248.53553390593" y2="220.46446609407" style="stroke:#c00;stroke-width:2;"/>
   <line x1="524" y1="509" x2="514" y2="509" style="stroke:#0bf;stroke-width:1;"/>
   <line x1="253" y1="613" x2="243" y2="613" style="stroke:#0bf;stroke-width:1;"/>
   <line x1="514" y1="509" x2="253" y2="613" style="stroke:#0bf;stroke-width:1;"/>
   <line x1="516.5" y1="509" x2="520.03553390593" y2="512.53553390593" style="stroke:#0bf;stroke-width:2;"/>
   <line x1="516.5" y1="509" x2="520.03553390593" y2="505.46446609407" style="stroke:#0bf;stroke-width:2;"/>
   <line x1="248" y1="613" x2="251.53553390593" y2="616.53553390593" style="stroke:#0bf;stroke-width:2;"/>
   <line x1="248" y1="613" x2="251.53553390593" y2="609.46446609407" style="stroke:#0bf;stroke-width:2;"/>
   <line x1="686" y1="489" x2="696" y2="489" style="stroke:#0bf;stroke-width:1;"/>
   <line x1="829" y1="596" x2="839" y2="596" style="stroke:#0bf;stroke-width:1;"/>
   <line x1="696" y1="489" x2="829" y2="596" style="stroke:#0bf;stroke-width:1;"/>
   <line x1="693.5" y1="489" x2="689.96446609407" y2="492.53553390593" style="stroke:#0bf;stroke-width:2;"/>
   <line x1="693.5" y1="489" x2="689.96446609407" y2="485.46446609407" style="stroke:#0bf;stroke-width:2;"/>
   <line x1="834" y1="596" x2="830.46446609407" y2="599.53553390593" style="stroke:#0bf;stroke-width:2;"/>
   <line x1="834" y1="596" x2="830.46446609407" y2="592.46446609407" style="stroke:#0bf;stroke-width:2;"/>
   <line x1="85" y1="324" x2="75" y2="324" style="stroke:#bbb;stroke-width:1;"/>
   <line x1="84" y1="40" x2="94" y2="40" style="stroke:#bbb;stroke-width:1;"/>
   <line x1="75" y1="324" x2="84" y2="40" style="stroke:#bbb;stroke-width:1;"/>
   <line x1="77.5" y1="324" x2="81.035533905933" y2="327.53553390593" style="stroke:#bbb;stroke-width:2;"/>
   <line x1="77.5" y1="324" x2="81.035533905933" y2="320.46446609407" style="stroke:#bbb;stroke-width:2;"/>
   <line x1="89" y1="40" x2="85.464466094067" y2="43.535533905933" style="stroke:#bbb;stroke-width:2;"/>
   <line x1="89" y1="40" x2="85.464466094067" y2="36.464466094067" style="stroke:#bbb;stroke-width:2;"/>
   <line x1="85" y1="344" x2="75" y2="344" style="stroke:#c00;stroke-width:1;"/>
   <line x1="52" y1="407" x2="62" y2="407" style="stroke:#c00;stroke-width:1;"/>
   <line x1="75" y1="344" x2="52" y2="407" style="stroke:#c00;stroke-width:1;"/>
   <line x1="77.5" y1="344" x2="81.035533905933" y2="347.53553390593" style="stroke:#c00;stroke-width:2;"/>
   <line x1="77.5" y1="344" x2="81.035533905933" y2="340.46446609407" style="stroke:#c00;stroke-width:2;"/>
   <line x1="57" y1="407" x2="53.464466094067" y2="410.53553390593" style="stroke:#c00;stroke-width:2;"/>
   <line x1="57" y1="407" x2="53.464466094067" y2="403.46446609407" style="stroke:#c00;stroke-width:2;"/>
   <rect width="141" height="20" x="856" y="344" style="fill:#007;stroke:black;"/>
   <text width="141" height="20" x="861" y="358" style="fill:#fff;" font-family="Arial" font-size="16px"> aditional_charge</text>
   <rect width="141" height="20" x="856" y="364" style="fill:#aea;stroke:black;"/>
   <text width="141" height="20" x="861" y="378" style="fill:black;" font-family="Arial" font-size="16px">return_check_id</text>
   <rect width="141" height="20" x="856" y="384" style="fill:none;stroke:black;"/>
   <text width="141" height="20" x="861" y="398" style="fill:black;" font-family="Arial" font-size="16px">aditional_charge_id</text>
   <rect width="141" height="20" x="856" y="404" style="fill:none;stroke:black;"/>
   <text width="141" height="20" x="861" y="418" style="fill:black;" font-family="Arial" font-size="16px">refilltank</text>
   <rect width="141" height="20" x="856" y="424" style="fill:none;stroke:black;"/>
   <text width="141" height="20" x="861" y="438" style="fill:black;" font-family="Arial" font-size="16px">aditional_cost</text>
   <rect width="141" height="20" x="856" y="444" style="fill:none;stroke:black;"/>
   <text width="141" height="20" x="861" y="458" style="fill:black;" font-family="Arial" font-size="16px">damages</text>
   <rect width="137" height="20" x="532" y="63" style="fill:#007;stroke:black;"/>
   <text width="137" height="20" x="537" y="77" style="fill:#fff;" font-family="Arial" font-size="16px"> booking</text>
   <rect width="137" height="20" x="532" y="83" style="fill:#aea;stroke:black;"/>
   <text width="137" height="20" x="537" y="97" style="fill:black;" font-family="Arial" font-size="16px">reservation_id</text>
   <rect width="137" height="20" x="532" y="103" style="fill:none;stroke:black;"/>
   <text width="137" height="20" x="537" y="117" style="fill:black;" font-family="Arial" font-size="16px">customer_id</text>
   <rect width="137" height="20" x="532" y="123" style="fill:none;stroke:black;"/>
   <text width="137" height="20" x="537" y="137" style="fill:black;" font-family="Arial" font-size="16px">pickup_loc_id</text>
   <rect width="137" height="20" x="532" y="143" style="fill:none;stroke:black;"/>
   <text width="137" height="20" x="537" y="157" style="fill:black;" font-family="Arial" font-size="16px">return_loc_id</text>
   <rect width="137" height="20" x="532" y="163" style="fill:none;stroke:black;"/>
   <text width="137" height="20" x="537" y="177" style="fill:black;" font-family="Arial" font-size="16px">car_id</text>
   <rect width="137" height="20" x="532" y="183" style="fill:none;stroke:black;"/>
   <text width="137" height="20" x="537" y="197" style="fill:black;" font-family="Arial" font-size="16px">company_id</text>
   <rect width="137" height="20" x="532" y="203" style="fill:none;stroke:black;"/>
   <text width="137" height="20" x="537" y="217" style="fill:black;" font-family="Arial" font-size="16px">start_date</text>
   <rect width="137" height="20" x="532" y="223" style="fill:none;stroke:black;"/>
   <text width="137" height="20" x="537" y="237" style="fill:black;" font-family="Arial" font-size="16px">return_end_date_id</text>
   <rect width="137" height="20" x="532" y="243" style="fill:none;stroke:black;"/>
   <text width="137" height="20" x="537" y="257" style="fill:black;" font-family="Arial" font-size="16px">price_per_day</text>
   <rect width="162" height="20" x="524" y="319" style="fill:#007;stroke:black;"/>
   <text width="162" height="20" x="529" y="333" style="fill:#fff;" font-family="Arial" font-size="16px"> car</text>
   <rect width="162" height="20" x="524" y="339" style="fill:#aea;stroke:black;"/>
   <text width="162" height="20" x="529" y="353" style="fill:black;" font-family="Arial" font-size="16px">car_id</text>
   <rect width="162" height="20" x="524" y="359" style="fill:none;stroke:black;"/>
   <text width="162" height="20" x="529" y="373" style="fill:black;" font-family="Arial" font-size="16px">year</text>
   <rect width="162" height="20" x="524" y="379" style="fill:none;stroke:black;"/>
   <text width="162" height="20" x="529" y="393" style="fill:black;" font-family="Arial" font-size="16px">model</text>
   <rect width="162" height="20" x="524" y="399" style="fill:none;stroke:black;"/>
   <text width="162" height="20" x="529" y="413" style="fill:black;" font-family="Arial" font-size="16px">fuel</text>
   <rect width="162" height="20" x="524" y="419" style="fill:none;stroke:black;"/>
   <text width="162" height="20" x="529" y="433" style="fill:black;" font-family="Arial" font-size="16px">color</text>
   <rect width="162" height="20" x="524" y="439" style="fill:none;stroke:black;"/>
   <text width="162" height="20" x="529" y="453" style="fill:black;" font-family="Arial" font-size="16px">seat</text>
   <rect width="162" height="20" x="524" y="459" style="fill:none;stroke:black;"/>
   <text width="162" height="20" x="529" y="473" style="fill:black;" font-family="Arial" font-size="16px">availability_inspection</text>
   <rect width="162" height="20" x="524" y="479" style="fill:none;stroke:black;"/>
   <text width="162" height="20" x="529" y="493" style="fill:black;" font-family="Arial" font-size="16px">insurance_id</text>
   <rect width="162" height="20" x="524" y="499" style="fill:none;stroke:black;"/>
   <text width="162" height="20" x="529" y="513" style="fill:black;" font-family="Arial" font-size="16px">extra_id</text>
   <rect width="92" height="20" x="869" y="181" style="fill:#007;stroke:black;"/>
   <text width="92" height="20" x="874" y="195" style="fill:#fff;" font-family="Arial" font-size="16px"> company</text>
   <rect width="92" height="20" x="869" y="201" style="fill:#aea;stroke:black;"/>
   <text width="92" height="20" x="874" y="215" style="fill:black;" font-family="Arial" font-size="16px">company_id</text>
   <rect width="92" height="20" x="869" y="221" style="fill:none;stroke:black;"/>
   <text width="92" height="20" x="874" y="235" style="fill:black;" font-family="Arial" font-size="16px">name</text>
   <rect width="155" height="20" x="85" y="194" style="fill:#007;stroke:black;"/>
   <text width="155" height="20" x="90" y="208" style="fill:#fff;" font-family="Arial" font-size="16px"> customer</text>
   <rect width="155" height="20" x="85" y="214" style="fill:#aea;stroke:black;"/>
   <text width="155" height="20" x="90" y="228" style="fill:black;" font-family="Arial" font-size="16px">customer_id</text>
   <rect width="155" height="20" x="85" y="234" style="fill:none;stroke:black;"/>
   <text width="155" height="20" x="90" y="248" style="fill:black;" font-family="Arial" font-size="16px">first_name</text>
   <rect width="155" height="20" x="85" y="254" style="fill:none;stroke:black;"/>
   <text width="155" height="20" x="90" y="268" style="fill:black;" font-family="Arial" font-size="16px">last_name</text>
   <rect width="155" height="20" x="85" y="274" style="fill:none;stroke:black;"/>
   <text width="155" height="20" x="90" y="288" style="fill:black;" font-family="Arial" font-size="16px">email</text>
   <rect width="155" height="20" x="85" y="294" style="fill:none;stroke:black;"/>
   <text width="155" height="20" x="90" y="308" style="fill:black;" font-family="Arial" font-size="16px">phone</text>
   <rect width="155" height="20" x="85" y="314" style="fill:none;stroke:black;"/>
   <text width="155" height="20" x="90" y="328" style="fill:black;" font-family="Arial" font-size="16px">customer_detail_id</text>
   <rect width="155" height="20" x="85" y="334" style="fill:none;stroke:black;"/>
   <text width="155" height="20" x="90" y="348" style="fill:black;" font-family="Arial" font-size="16px">customer_address_id</text>
   <rect width="155" height="20" x="62" y="377" style="fill:#007;stroke:black;"/>
   <text width="155" height="20" x="67" y="391" style="fill:#fff;" font-family="Arial" font-size="16px"> customer_address</text>
   <rect width="155" height="20" x="62" y="397" style="fill:#aea;stroke:black;"/>
   <text width="155" height="20" x="67" y="411" style="fill:black;" font-family="Arial" font-size="16px">customer_address_id</text>
   <rect width="155" height="20" x="62" y="417" style="fill:none;stroke:black;"/>
   <text width="155" height="20" x="67" y="431" style="fill:black;" font-family="Arial" font-size="16px">address_city</text>
   <rect width="155" height="20" x="62" y="437" style="fill:none;stroke:black;"/>
   <text width="155" height="20" x="67" y="451" style="fill:black;" font-family="Arial" font-size="16px">address_country</text>
   <rect width="155" height="20" x="62" y="457" style="fill:none;stroke:black;"/>
   <text width="155" height="20" x="67" y="471" style="fill:black;" font-family="Arial" font-size="16px">address_zip</text>
   <rect width="155" height="20" x="62" y="477" style="fill:none;stroke:black;"/>
   <text width="155" height="20" x="67" y="491" style="fill:black;" font-family="Arial" font-size="16px">address_num</text>
   <rect width="155" height="20" x="62" y="497" style="fill:none;stroke:black;"/>
   <text width="155" height="20" x="67" y="511" style="fill:black;" font-family="Arial" font-size="16px">address_street</text>
   <rect width="137" height="20" x="94" y="10" style="fill:#007;stroke:black;"/>
   <text width="137" height="20" x="99" y="24" style="fill:#fff;" font-family="Arial" font-size="16px"> customer_detail</text>
   <rect width="137" height="20" x="94" y="30" style="fill:#aea;stroke:black;"/>
   <text width="137" height="20" x="99" y="44" style="fill:black;" font-family="Arial" font-size="16px">customer_detail_id</text>
   <rect width="137" height="20" x="94" y="50" style="fill:none;stroke:black;"/>
   <text width="137" height="20" x="99" y="64" style="fill:black;" font-family="Arial" font-size="16px">birth_place</text>
   <rect width="137" height="20" x="94" y="70" style="fill:none;stroke:black;"/>
   <text width="137" height="20" x="99" y="84" style="fill:black;" font-family="Arial" font-size="16px">birt_date</text>
   <rect width="137" height="20" x="94" y="90" style="fill:none;stroke:black;"/>
   <text width="137" height="20" x="99" y="104" style="fill:black;" font-family="Arial" font-size="16px">gender</text>
   <rect width="137" height="20" x="94" y="110" style="fill:none;stroke:black;"/>
   <text width="137" height="20" x="99" y="124" style="fill:black;" font-family="Arial" font-size="16px">passport_num</text>
   <rect width="137" height="20" x="94" y="130" style="fill:none;stroke:black;"/>
   <text width="137" height="20" x="99" y="144" style="fill:black;" font-family="Arial" font-size="16px">credit_card_num</text>
   <rect width="137" height="20" x="94" y="150" style="fill:none;stroke:black;"/>
   <text width="137" height="20" x="99" y="164" style="fill:black;" font-family="Arial" font-size="16px">driving_license</text>
   <rect width="90" height="20" x="153" y="583" style="fill:#007;stroke:black;"/>
   <text width="90" height="20" x="158" y="597" style="fill:#fff;" font-family="Arial" font-size="16px"> extra</text>
   <rect width="90" height="20" x="153" y="603" style="fill:#aea;stroke:black;"/>
   <text width="90" height="20" x="158" y="617" style="fill:black;" font-family="Arial" font-size="16px">extra_id</text>
   <rect width="90" height="20" x="153" y="623" style="fill:none;stroke:black;"/>
   <text width="90" height="20" x="158" y="637" style="fill:black;" font-family="Arial" font-size="16px">navigation</text>
   <rect width="90" height="20" x="153" y="643" style="fill:none;stroke:black;"/>
   <text width="90" height="20" x="158" y="657" style="fill:black;" font-family="Arial" font-size="16px">cam</text>
   <rect width="90" height="20" x="153" y="663" style="fill:none;stroke:black;"/>
   <text width="90" height="20" x="158" y="677" style="fill:black;" font-family="Arial" font-size="16px">senzors</text>
   <rect width="90" height="20" x="153" y="683" style="fill:none;stroke:black;"/>
   <text width="90" height="20" x="158" y="697" style="fill:black;" font-family="Arial" font-size="16px">parking_car</text>
   <rect width="100" height="20" x="839" y="566" style="fill:#007;stroke:black;"/>
   <text width="100" height="20" x="844" y="580" style="fill:#fff;" font-family="Arial" font-size="16px"> insurance</text>
   <rect width="100" height="20" x="839" y="586" style="fill:#aea;stroke:black;"/>
   <text width="100" height="20" x="844" y="600" style="fill:black;" font-family="Arial" font-size="16px">insurance_id</text>
   <rect width="100" height="20" x="839" y="606" style="fill:none;stroke:black;"/>
   <text width="100" height="20" x="844" y="620" style="fill:black;" font-family="Arial" font-size="16px">company_ins</text>
   <rect width="100" height="20" x="839" y="626" style="fill:none;stroke:black;"/>
   <text width="100" height="20" x="844" y="640" style="fill:black;" font-family="Arial" font-size="16px">valability</text>
   <rect width="95" height="20" x="881" y="21" style="fill:#007;stroke:black;"/>
   <text width="95" height="20" x="886" y="35" style="fill:#fff;" font-family="Arial" font-size="16px"> locations</text>
   <rect width="95" height="20" x="881" y="41" style="fill:#aea;stroke:black;"/>
   <text width="95" height="20" x="886" y="55" style="fill:black;" font-family="Arial" font-size="16px">locations_id</text>
   <rect width="95" height="20" x="881" y="61" style="fill:none;stroke:black;"/>
   <text width="95" height="20" x="886" y="75" style="fill:black;" font-family="Arial" font-size="16px">city</text>
   <rect width="95" height="20" x="881" y="81" style="fill:none;stroke:black;"/>
   <text width="95" height="20" x="886" y="95" style="fill:black;" font-family="Arial" font-size="16px">country</text>
   <rect width="95" height="20" x="881" y="101" style="fill:none;stroke:black;"/>
   <text width="95" height="20" x="886" y="115" style="fill:black;" font-family="Arial" font-size="16px">street</text>
   <rect width="95" height="20" x="881" y="121" style="fill:none;stroke:black;"/>
   <text width="95" height="20" x="886" y="135" style="fill:black;" font-family="Arial" font-size="16px">number</text>
   <rect width="95" height="20" x="881" y="141" style="fill:none;stroke:black;"/>
   <text width="95" height="20" x="886" y="155" style="fill:black;" font-family="Arial" font-size="16px">phone_loc</text>
   <rect width="95" height="20" x="881" y="161" style="fill:none;stroke:black;"/>
   <text width="95" height="20" x="886" y="175" style="fill:black;" font-family="Arial" font-size="16px">zip_code_loc</text>
   <rect width="137" height="20" x="863" y="258" style="fill:#007;stroke:black;"/>
   <text width="137" height="20" x="868" y="272" style="fill:#fff;" font-family="Arial" font-size="16px"> return_check</text>
   <rect width="137" height="20" x="863" y="278" style="fill:#aea;stroke:black;"/>
   <text width="137" height="20" x="868" y="292" style="fill:black;" font-family="Arial" font-size="16px">return_end_date_id</text>
   <rect width="137" height="20" x="863" y="298" style="fill:none;stroke:black;"/>
   <text width="137" height="20" x="868" y="312" style="fill:black;" font-family="Arial" font-size="16px">return_check_id</text>
   <rect width="137" height="20" x="863" y="318" style="fill:none;stroke:black;"/>
   <text width="137" height="20" x="868" y="332" style="fill:black;" font-family="Arial" font-size="16px">end_date</text>
</svg>
